<mxfile host="app.diagrams.net" modified="2022-06-24T23:50:07.482Z" agent="5.0 (X11; Linux x86_64) AppleWebKit/537.36 (KHTML, like Gecko) Chrome/104.0.5106.0 Safari/537.36" etag="HqCeLLY4e7v-g5dHLUxL" version="20.0.1" type="github" pages="2">
  <diagram id="givH3kl9ryhQj4KlOiUC" name="RM">
    <mxGraphModel dx="1835" dy="1055" grid="1" gridSize="10" guides="1" tooltips="1" connect="1" arrows="1" fold="1" page="1" pageScale="1" pageWidth="413" pageHeight="291" math="0" shadow="0">
      <root>
        <mxCell id="0" />
        <mxCell id="1" parent="0" />
        <mxCell id="EmZdWoWNg9iefI1Aj5C1-1" value="" style="rounded=0;whiteSpace=wrap;html=1;strokeColor=#82b366;strokeWidth=0;fillColor=#d5e8d4;" parent="1" vertex="1">
          <mxGeometry y="-10" width="410" height="240" as="geometry" />
        </mxCell>
        <mxCell id="EmZdWoWNg9iefI1Aj5C1-4" value="State Manager" style="rounded=0;whiteSpace=wrap;html=1;fontFamily=Helvetica;fontSize=8;strokeColor=default;strokeWidth=0.5;" parent="1" vertex="1">
          <mxGeometry x="20" y="130" width="110" height="60" as="geometry" />
        </mxCell>
        <mxCell id="EmZdWoWNg9iefI1Aj5C1-11" style="edgeStyle=orthogonalEdgeStyle;rounded=0;orthogonalLoop=1;jettySize=auto;html=1;exitX=0.25;exitY=1;exitDx=0;exitDy=0;entryX=1;entryY=0.5;entryDx=0;entryDy=0;fontFamily=Helvetica;fontSize=8;endArrow=none;endFill=0;" parent="1" source="EmZdWoWNg9iefI1Aj5C1-5" target="EmZdWoWNg9iefI1Aj5C1-4" edge="1">
          <mxGeometry relative="1" as="geometry" />
        </mxCell>
        <mxCell id="EmZdWoWNg9iefI1Aj5C1-14" style="edgeStyle=orthogonalEdgeStyle;rounded=0;orthogonalLoop=1;jettySize=auto;html=1;exitX=0.5;exitY=1;exitDx=0;exitDy=0;entryX=0.5;entryY=0;entryDx=0;entryDy=0;fontFamily=Helvetica;fontSize=8;endArrow=block;endFill=0;startArrow=none;startFill=0;" parent="1" source="EmZdWoWNg9iefI1Aj5C1-5" target="EmZdWoWNg9iefI1Aj5C1-7" edge="1">
          <mxGeometry relative="1" as="geometry" />
        </mxCell>
        <mxCell id="EmZdWoWNg9iefI1Aj5C1-15" value="SOLICITA METRICAS" style="edgeLabel;html=1;align=center;verticalAlign=middle;resizable=0;points=[];fontSize=8;fontFamily=Helvetica;labelBackgroundColor=#D5E8D4;" parent="EmZdWoWNg9iefI1Aj5C1-14" vertex="1" connectable="0">
          <mxGeometry x="-0.1425" relative="1" as="geometry">
            <mxPoint y="21" as="offset" />
          </mxGeometry>
        </mxCell>
        <mxCell id="degvUQ81yIcglxJupTP3-10" style="edgeStyle=orthogonalEdgeStyle;rounded=0;orthogonalLoop=1;jettySize=auto;html=1;exitX=0.75;exitY=1;exitDx=0;exitDy=0;endArrow=none;endFill=0;entryX=0;entryY=0.5;entryDx=0;entryDy=0;" parent="1" source="EmZdWoWNg9iefI1Aj5C1-5" target="EmZdWoWNg9iefI1Aj5C1-6" edge="1">
          <mxGeometry relative="1" as="geometry" />
        </mxCell>
        <mxCell id="ByBU07RrCaSleD2tIyLL-16" style="edgeStyle=orthogonalEdgeStyle;rounded=0;orthogonalLoop=1;jettySize=auto;html=1;exitX=0.5;exitY=0;exitDx=0;exitDy=0;entryX=0.5;entryY=1;entryDx=0;entryDy=0;fontFamily=Times New Roman;fontSize=16;fontColor=#999999;startArrow=none;startFill=0;endArrow=none;endFill=0;" parent="1" source="EmZdWoWNg9iefI1Aj5C1-5" target="ByBU07RrCaSleD2tIyLL-21" edge="1">
          <mxGeometry relative="1" as="geometry">
            <mxPoint x="208" y="120" as="targetPoint" />
          </mxGeometry>
        </mxCell>
        <mxCell id="EmZdWoWNg9iefI1Aj5C1-5" value="Autoscaler" style="rounded=0;whiteSpace=wrap;html=1;fontFamily=Helvetica;fontSize=8;strokeColor=default;strokeWidth=0.5;" parent="1" vertex="1">
          <mxGeometry x="153" y="60" width="110" height="60" as="geometry" />
        </mxCell>
        <mxCell id="degvUQ81yIcglxJupTP3-12" style="edgeStyle=orthogonalEdgeStyle;rounded=0;orthogonalLoop=1;jettySize=auto;html=1;exitX=0.5;exitY=0;exitDx=0;exitDy=0;entryX=1;entryY=0.5;entryDx=0;entryDy=0;endArrow=none;endFill=0;" parent="1" source="EmZdWoWNg9iefI1Aj5C1-6" target="degvUQ81yIcglxJupTP3-6" edge="1">
          <mxGeometry relative="1" as="geometry" />
        </mxCell>
        <mxCell id="EmZdWoWNg9iefI1Aj5C1-6" value="Worker Launcher" style="rounded=0;whiteSpace=wrap;html=1;fontFamily=Helvetica;fontSize=8;strokeColor=default;strokeWidth=0.5;" parent="1" vertex="1">
          <mxGeometry x="280" y="130" width="110" height="60" as="geometry" />
        </mxCell>
        <mxCell id="EmZdWoWNg9iefI1Aj5C1-7" value="SERVER" style="rounded=0;whiteSpace=wrap;html=1;fontFamily=Helvetica;fontSize=8;strokeColor=default;strokeWidth=0.5;" parent="1" vertex="1">
          <mxGeometry x="153" y="280" width="110" height="60" as="geometry" />
        </mxCell>
        <mxCell id="EmZdWoWNg9iefI1Aj5C1-13" value="Resource Manager" style="text;html=1;align=center;verticalAlign=middle;resizable=0;points=[];autosize=1;strokeColor=none;fillColor=none;fontSize=8;fontFamily=Helvetica;strokeWidth=1;fontStyle=0" parent="1" vertex="1">
          <mxGeometry width="80" height="20" as="geometry" />
        </mxCell>
        <mxCell id="degvUQ81yIcglxJupTP3-3" value="Resource Provider" style="rounded=0;whiteSpace=wrap;html=1;fontFamily=Helvetica;fontSize=8;strokeColor=default;strokeWidth=0.5;" parent="1" vertex="1">
          <mxGeometry x="143" y="-77" width="130" height="60" as="geometry" />
        </mxCell>
        <mxCell id="degvUQ81yIcglxJupTP3-4" value="Node" style="rounded=0;whiteSpace=wrap;html=1;fontFamily=Helvetica;fontSize=8;strokeColor=default;strokeWidth=0.5;" parent="1" vertex="1">
          <mxGeometry x="143" y="-110" width="40" height="25.5" as="geometry" />
        </mxCell>
        <mxCell id="degvUQ81yIcglxJupTP3-5" value="Node" style="rounded=0;whiteSpace=wrap;html=1;fontFamily=Helvetica;fontSize=8;strokeColor=default;strokeWidth=0.5;" parent="1" vertex="1">
          <mxGeometry x="188" y="-110" width="40" height="25" as="geometry" />
        </mxCell>
        <mxCell id="degvUQ81yIcglxJupTP3-6" value="&lt;span style=&quot;color: rgb(0, 0, 0); font-family: Helvetica; font-size: 8px; font-style: normal; font-variant-ligatures: normal; font-variant-caps: normal; font-weight: 400; letter-spacing: normal; orphans: 2; text-align: center; text-indent: 0px; text-transform: none; widows: 2; word-spacing: 0px; -webkit-text-stroke-width: 0px; background-color: rgb(248, 249, 250); text-decoration-thickness: initial; text-decoration-style: initial; text-decoration-color: initial; float: none; display: inline !important;&quot;&gt;Node&lt;/span&gt;" style="rounded=0;whiteSpace=wrap;html=1;fontFamily=Helvetica;fontSize=8;strokeColor=default;strokeWidth=0.5;" parent="1" vertex="1">
          <mxGeometry x="233" y="-110" width="40" height="25" as="geometry" />
        </mxCell>
        <mxCell id="iXi9pWHLpVJdPP4cGL9C-4" style="edgeStyle=orthogonalEdgeStyle;rounded=0;orthogonalLoop=1;jettySize=auto;html=1;exitX=0.5;exitY=1;exitDx=0;exitDy=0;dashed=1;" parent="1" source="degvUQ81yIcglxJupTP3-3" target="degvUQ81yIcglxJupTP3-3" edge="1">
          <mxGeometry relative="1" as="geometry" />
        </mxCell>
        <mxCell id="ByBU07RrCaSleD2tIyLL-1" value="" style="rhombus;whiteSpace=wrap;html=1;fillColor=#dae8fc;strokeColor=#6c8ebf;" parent="1" vertex="1">
          <mxGeometry x="233" y="90" width="20" height="20" as="geometry" />
        </mxCell>
        <mxCell id="ByBU07RrCaSleD2tIyLL-2" value="" style="rhombus;whiteSpace=wrap;html=1;fillColor=#dae8fc;strokeColor=#6c8ebf;fontColor=#6C8EBF;" parent="1" vertex="1">
          <mxGeometry x="-165" y="291" width="20" height="20" as="geometry" />
        </mxCell>
        <mxCell id="ByBU07RrCaSleD2tIyLL-3" value="PolÃ­tica do autoscaler" style="text;html=1;align=center;verticalAlign=middle;resizable=0;points=[];autosize=1;strokeColor=none;fillColor=none;fontColor=#6C8EBF;" parent="1" vertex="1">
          <mxGeometry x="-118" y="291" width="130" height="20" as="geometry" />
        </mxCell>
        <mxCell id="ByBU07RrCaSleD2tIyLL-8" value="{" style="text;whiteSpace=wrap;html=1;fontColor=#999999;fontSize=61;fontFamily=Times New Roman;" parent="1" vertex="1">
          <mxGeometry x="-40" y="45" width="40" height="90" as="geometry" />
        </mxCell>
        <mxCell id="ByBU07RrCaSleD2tIyLL-9" value="{" style="text;whiteSpace=wrap;html=1;fontColor=#999999;fontSize=61;fontStyle=0;fontFamily=Times New Roman;" parent="1" vertex="1">
          <mxGeometry x="-40" y="115" width="40" height="90" as="geometry" />
        </mxCell>
        <mxCell id="ByBU07RrCaSleD2tIyLL-10" value="componente principal" style="text;html=1;align=center;verticalAlign=middle;resizable=0;points=[];autosize=1;strokeColor=none;fillColor=none;fontSize=16;fontColor=#999999;" parent="1" vertex="1">
          <mxGeometry x="-210" y="80" width="170" height="20" as="geometry" />
        </mxCell>
        <mxCell id="ByBU07RrCaSleD2tIyLL-12" value="componentes auxiliares" style="text;html=1;align=center;verticalAlign=middle;resizable=0;points=[];autosize=1;strokeColor=none;fillColor=none;fontSize=16;fontColor=#999999;" parent="1" vertex="1">
          <mxGeometry x="-220" y="150" width="180" height="20" as="geometry" />
        </mxCell>
        <mxCell id="ByBU07RrCaSleD2tIyLL-21" value="REST API" style="rounded=0;whiteSpace=wrap;html=1;fontFamily=Helvetica;fontSize=6;strokeColor=default;strokeWidth=0.5;" parent="1" vertex="1">
          <mxGeometry x="188" y="-17" width="40" height="7" as="geometry" />
        </mxCell>
      </root>
    </mxGraphModel>
  </diagram>
  <diagram name="node" id="QiuuPh8pqdXVUoQ2Vr1C">
    <mxGraphModel dx="569" dy="306" grid="1" gridSize="10" guides="1" tooltips="1" connect="1" arrows="1" fold="1" page="1" pageScale="1" pageWidth="413" pageHeight="291" math="0" shadow="0">
      <root>
        <mxCell id="OyPvWq7zxoFrwu6D7QL0-0" />
        <mxCell id="OyPvWq7zxoFrwu6D7QL0-1" parent="OyPvWq7zxoFrwu6D7QL0-0" />
        <mxCell id="OyPvWq7zxoFrwu6D7QL0-2" value="" style="rounded=0;whiteSpace=wrap;html=1;strokeColor=#6c8ebf;strokeWidth=0;fillColor=#dae8fc;" vertex="1" parent="OyPvWq7zxoFrwu6D7QL0-1">
          <mxGeometry x="37" y="10" width="340" height="245" as="geometry" />
        </mxCell>
        <mxCell id="OyPvWq7zxoFrwu6D7QL0-16" value="Worker 1" style="rounded=0;whiteSpace=wrap;html=1;fontFamily=Helvetica;fontSize=8;strokeColor=default;strokeWidth=0.5;" vertex="1" parent="OyPvWq7zxoFrwu6D7QL0-1">
          <mxGeometry x="47" y="45" width="100" height="60" as="geometry" />
        </mxCell>
        <mxCell id="OyPvWq7zxoFrwu6D7QL0-18" style="edgeStyle=orthogonalEdgeStyle;rounded=0;orthogonalLoop=1;jettySize=auto;html=1;exitX=0.5;exitY=1;exitDx=0;exitDy=0;dashed=1;" edge="1" parent="OyPvWq7zxoFrwu6D7QL0-1">
          <mxGeometry relative="1" as="geometry">
            <mxPoint x="245" y="191" as="sourcePoint" />
            <mxPoint x="245" y="191" as="targetPoint" />
          </mxGeometry>
        </mxCell>
        <mxCell id="nDW1kJGVqX50-gs_ahfs-0" value="Worker 5" style="rounded=0;whiteSpace=wrap;html=1;fontFamily=Helvetica;fontSize=8;strokeColor=default;strokeWidth=0.5;" vertex="1" parent="OyPvWq7zxoFrwu6D7QL0-1">
          <mxGeometry x="157" y="45" width="100" height="60" as="geometry" />
        </mxCell>
        <mxCell id="nDW1kJGVqX50-gs_ahfs-1" value="Worker 3" style="rounded=0;whiteSpace=wrap;html=1;fontFamily=Helvetica;fontSize=8;strokeColor=default;strokeWidth=0.5;" vertex="1" parent="OyPvWq7zxoFrwu6D7QL0-1">
          <mxGeometry x="47" y="115" width="100" height="60" as="geometry" />
        </mxCell>
        <mxCell id="nDW1kJGVqX50-gs_ahfs-2" value="Worker 15" style="rounded=0;whiteSpace=wrap;html=1;fontFamily=Helvetica;fontSize=8;strokeColor=default;strokeWidth=0.5;" vertex="1" parent="OyPvWq7zxoFrwu6D7QL0-1">
          <mxGeometry x="157" y="115" width="100" height="60" as="geometry" />
        </mxCell>
        <mxCell id="nDW1kJGVqX50-gs_ahfs-3" value="Worker 7" style="rounded=0;whiteSpace=wrap;html=1;fontFamily=Helvetica;fontSize=8;strokeColor=default;strokeWidth=0.5;" vertex="1" parent="OyPvWq7zxoFrwu6D7QL0-1">
          <mxGeometry x="267" y="45" width="100" height="60" as="geometry" />
        </mxCell>
        <mxCell id="nDW1kJGVqX50-gs_ahfs-4" value="Worker 8" style="rounded=0;whiteSpace=wrap;html=1;fontFamily=Helvetica;fontSize=8;strokeColor=default;strokeWidth=0.5;" vertex="1" parent="OyPvWq7zxoFrwu6D7QL0-1">
          <mxGeometry x="267" y="115" width="100" height="60" as="geometry" />
        </mxCell>
        <mxCell id="nDW1kJGVqX50-gs_ahfs-5" value="Worker 20" style="rounded=0;whiteSpace=wrap;html=1;fontFamily=Helvetica;fontSize=8;strokeColor=default;strokeWidth=0.5;" vertex="1" parent="OyPvWq7zxoFrwu6D7QL0-1">
          <mxGeometry x="47" y="185" width="100" height="60" as="geometry" />
        </mxCell>
        <mxCell id="nDW1kJGVqX50-gs_ahfs-6" value="Worker 2" style="rounded=0;whiteSpace=wrap;html=1;fontFamily=Helvetica;fontSize=8;strokeColor=default;strokeWidth=0.5;" vertex="1" parent="OyPvWq7zxoFrwu6D7QL0-1">
          <mxGeometry x="157" y="185" width="100" height="60" as="geometry" />
        </mxCell>
        <mxCell id="VqP6zzKVyuEk30cZ3ehg-0" value="Node" style="text;html=1;align=center;verticalAlign=middle;whiteSpace=wrap;rounded=0;fontColor=#0D0D0D;fontStyle=1;fontSize=12;" vertex="1" parent="OyPvWq7zxoFrwu6D7QL0-1">
          <mxGeometry x="37" y="10" width="60" height="30" as="geometry" />
        </mxCell>
        <mxCell id="VqP6zzKVyuEk30cZ3ehg-1" value="livre" style="rounded=0;whiteSpace=wrap;html=1;fontFamily=Helvetica;fontSize=8;strokeColor=default;strokeWidth=0.5;dashed=1;" vertex="1" parent="OyPvWq7zxoFrwu6D7QL0-1">
          <mxGeometry x="267" y="185" width="100" height="60" as="geometry" />
        </mxCell>
      </root>
    </mxGraphModel>
  </diagram>
</mxfile>
